<svg width="100" height="100" viewBox="0 0 2500 2500" fill="none" xmlns="http://www.w3.org/2000/svg">


<path d="M842.523 898.658C892.875 935.188 946.976 952.154 1010.45 961.734C1453.8 1011.8 1393.3 1174.71 1354.9 1366.42C1549.17 1085.98 1621.83 882.035 1594.43 707.748C1564.85 519.612 1432.49 382.736 1391.22 306.194C1390.56 306.521 1389.78 306.948 1389.12 307.28C1386.41 308.909 1383.76 310.508 1381.01 312.167C1360.22 324.688 1337.99 338.081 1314.73 352.692C1303.1 359.998 1291.21 367.608 1279.12 375.566C1267.03 383.524 1254.74 391.83 1242.29 400.528C1229.85 409.225 1217.25 418.314 1204.56 427.838C1191.87 437.361 1179.08 447.318 1166.24 457.754C1159.82 462.972 1153.39 468.31 1146.96 473.772C1140.52 479.234 1134.08 484.821 1127.65 490.539C1121.21 496.257 1114.77 502.105 1108.35 508.089C1101.92 514.073 1095.5 520.192 1089.1 526.453C1082.69 532.713 1076.31 539.115 1069.94 545.663C1063.57 552.211 1057.23 558.907 1050.91 565.754C1044.59 572.601 1038.31 579.6 1032.05 586.756C1025.8 593.913 1019.58 601.226 1013.4 608.703C1007.22 616.18 1001.08 623.82 994.995 631.628C988.907 639.436 982.867 647.412 976.88 655.562C970.894 663.712 964.962 672.036 959.092 680.538C953.221 689.041 947.411 697.722 941.669 706.588C935.928 715.455 930.255 724.506 924.656 733.747C919.056 742.988 913.531 752.417 908.086 762.043C902.642 771.669 897.279 781.491 892.003 791.514C886.727 801.536 881.538 811.758 876.444 822.188C871.35 832.617 866.348 843.252 861.449 854.099C856.549 864.946 851.751 876.005 847.059 887.28C845.511 891.001 844.048 894.891 842.523 898.658V898.658Z" fill="#515151"/>
<path d="M828.859 933.976C825.95 941.771 823.039 949.564 820.247 957.582C817.87 964.408 815.643 971.188 813.556 977.917C811.47 984.645 809.525 991.323 807.715 997.946C805.905 1004.57 804.228 1011.14 802.68 1017.65C801.132 1024.16 799.712 1030.62 798.412 1037.01C797.113 1043.4 795.935 1049.73 794.871 1055.99C793.806 1062.26 792.854 1068.46 792.01 1074.59C791.165 1080.72 790.429 1086.78 789.791 1092.76C789.153 1098.75 788.614 1104.66 788.169 1110.5C787.723 1116.34 787.372 1122.1 787.106 1127.78C786.839 1133.46 786.658 1139.06 786.556 1144.57C786.456 1149.96 786.647 1155 786.691 1160.22C882.836 1160.96 1062.19 1158.6 1237.28 1046.23C1234.03 1044.59 1230.48 1042.95 1226.46 1041.29C1222.11 1039.48 1217.43 1037.72 1212.45 1036C1207.47 1034.28 1202.2 1032.61 1196.67 1030.97C1191.15 1029.33 1185.37 1027.74 1179.37 1026.18C1173.38 1024.63 1167.17 1023.12 1160.78 1021.65C1148.04 1018.73 1134.76 1016.02 1121.31 1013.51C1107.87 1011 1094.24 1008.7 1080.82 1006.59C1067.39 1004.48 1054.16 1002.58 1041.48 1000.86C1028.81 999.151 1016.7 997.63 1005.51 996.296C999.38 995.566 993.472 994.777 987.772 993.933C982.072 993.088 976.582 992.191 971.289 991.244C960.704 989.351 950.912 987.263 941.823 985.024C932.734 982.785 924.347 980.396 916.576 977.899C908.805 975.402 901.648 972.798 895.018 970.13C888.387 967.463 882.284 964.732 876.617 961.981C870.95 959.23 865.719 956.458 860.838 953.71C855.958 950.962 851.427 948.238 847.155 945.581C842.883 942.924 838.872 940.335 835.032 937.856C832.873 936.462 830.924 935.292 828.859 933.976V933.976Z" fill="#515151"/>
<path d="M827.939 1.06619e-10C487.1 0.000225416 301.548 156.398 206.43 267.323L401.517 267.325C438.463 267.325 468.679 297.737 469.646 335.892L470.902 385.447C471.336 402.59 484.912 416.253 501.51 416.253H583.61C583.574 414.751 583.554 413.246 583.554 411.735C583.554 312.267 661.605 231.633 757.889 231.633C854.171 231.633 932.224 312.267 932.224 411.735C932.224 511.202 854.171 591.837 757.889 591.837C676.054 591.837 607.403 533.582 588.637 455.028H501.512C464.566 455.028 434.348 424.618 433.381 386.464L432.125 336.906C431.691 319.764 418.116 306.101 401.517 306.101L175.1 306.099C165.337 318.891 157.001 330.462 149.981 340.308C133.019 364.096 109.989 400.66 87.0684 447.449H267.442C274.454 429.238 291.442 416.152 311.608 415.607C338.602 414.876 361.059 436.891 361.765 464.778C362.471 492.664 341.16 515.861 314.166 516.592C293.644 517.146 275.757 504.548 268.044 486.224H69.2236C41.1599 551.234 15.8158 631.273 5.23694 721.448L78.4836 721.785C95.3944 721.864 109.165 707.764 109.24 690.294L109.443 643.13C109.61 604.368 140.075 573.035 177.597 573.035L442.499 573.037C448.974 553.73 466.486 539.642 487.425 539.076C514.419 538.346 536.875 560.361 537.582 588.247C538.288 616.133 516.977 639.33 489.983 640.061C470.262 640.594 452.977 628.979 444.812 611.812L177.597 611.81C160.739 611.81 147.052 625.888 146.977 643.304L146.774 690.468C146.606 729.352 115.956 760.734 78.3158 760.561L1.6564 760.208C-8.9551 920.203 29.3019 1108.24 178.087 1299.49C384.48 1564.8 760.279 1637.24 923.255 2000C992.626 1656.86 794.677 1484.53 760.819 1275.99C760.142 1272.61 759.426 1269.5 758.78 1265.95C757.252 1257.53 755.825 1248.64 754.557 1239.3C753.289 1229.95 752.179 1220.15 751.287 1209.94C750.396 1199.72 749.723 1189.07 749.327 1178.05C748.931 1167.02 748.812 1155.6 749.03 1143.82C749.139 1137.93 749.332 1131.95 749.617 1125.89C749.901 1119.83 750.276 1113.68 750.751 1107.46C751.226 1101.23 751.801 1094.92 752.481 1088.53C753.162 1082.14 753.948 1075.68 754.848 1069.14C755.749 1062.61 756.762 1056 757.897 1049.32C759.032 1042.64 760.287 1035.89 761.672 1029.08C763.057 1022.26 764.57 1015.39 766.219 1008.45C767.868 1001.51 769.654 994.509 771.582 987.452C773.51 980.395 775.581 973.28 777.804 966.113C780.026 958.947 782.399 951.728 784.93 944.459C789.312 931.876 793.819 919.527 798.446 907.408C803.072 895.289 807.817 883.401 812.673 871.735C817.53 860.07 822.499 848.629 827.572 837.406C832.646 826.184 837.823 815.18 843.098 804.389C848.374 793.598 853.749 783.019 859.213 772.648C864.677 762.278 870.233 752.116 875.871 742.156C881.51 732.195 887.23 722.436 893.029 712.875C898.828 703.313 904.703 693.949 910.648 684.776C916.593 675.602 922.607 666.619 928.684 657.822C934.761 649.026 940.899 640.414 947.094 631.983C953.289 623.553 959.541 615.302 965.84 607.227C972.139 599.151 978.484 591.25 984.873 583.518C991.262 575.786 997.693 568.224 1004.16 560.826C1010.62 553.427 1017.12 546.193 1023.65 539.116C1030.17 532.04 1036.73 525.121 1043.3 518.355C1049.87 511.59 1056.47 504.978 1063.07 498.513C1069.68 492.048 1076.3 485.732 1082.93 479.556C1089.56 473.38 1096.19 467.347 1102.82 461.45C1109.45 455.553 1116.08 449.79 1122.71 444.161C1129.33 438.531 1135.95 433.034 1142.55 427.661C1155.75 416.914 1168.89 406.669 1181.92 396.883C1194.94 387.097 1207.85 377.767 1220.59 368.854C1233.33 359.94 1245.9 351.442 1258.23 343.314C1270.57 335.185 1282.68 327.427 1294.51 319.996C1306.33 312.564 1317.87 305.46 1329.07 298.639C1340.27 291.817 1351.13 285.279 1361.59 278.98C1364.97 276.941 1368.23 274.974 1371.53 272.983C1281.42 141.221 1042.18 -0.000141689 827.939 1.06619e-10Z" fill="#1A82D9"/>
<path d="M757.889 542.857C831.261 542.857 890.74 482.324 890.74 407.653C890.74 332.982 831.261 272.449 757.889 272.449C684.518 272.449 625.039 332.982 625.039 407.653C625.039 482.324 684.518 542.857 757.889 542.857Z" fill="#515151"/>

</svg>
