<svg version="1.0" xmlns="http://www.w3.org/2000/svg"
 width="80" height="100" viewBox="0 0 445.000000 560.000000"
 preserveAspectRatio="xMidYMid meet">

<g transform="translate(0.000000,560.000000) scale(0.100000,-0.100000)"
fill="#000000" stroke="none">
<path d="M2023 4918 c-11 -17 -82 -50 -93 -43 -13 8 -146 -62 -176 -91 -23
-24 -34 -28 -67 -24 -10 1 -30 -10 -44 -25 -15 -14 -31 -24 -37 -22 -6 2 -18
-7 -27 -20 -9 -14 -20 -23 -25 -22 -5 2 -19 -15 -32 -38 -18 -33 -20 -46 -12
-67 15 -41 0 -153 -23 -168 -7 -4 -2 -14 14 -26 13 -11 26 -18 29 -15 3 2 -3
9 -13 14 -9 6 -17 15 -17 20 0 6 4 7 10 4 6 -4 7 1 3 12 -5 16 -4 16 9 3 16
-16 31 -84 21 -94 -4 -3 -13 0 -22 6 -14 10 -14 10 -3 -2 7 -8 17 -16 22 -16
6 -1 13 -2 17 -3 4 0 -2 -7 -13 -15 -11 -9 -23 -11 -30 -6 -12 11 -84 -9 -84
-22 0 -5 4 -7 9 -3 5 3 12 1 15 -4 3 -5 -1 -11 -9 -15 -8 -3 -12 -12 -9 -21 4
-9 1 -15 -9 -15 -8 0 -18 6 -20 13 -4 7 -6 6 -6 -5 -1 -11 -7 -15 -23 -11 -22
4 -23 4 -4 -11 19 -16 19 -17 -14 -51 -19 -20 -40 -33 -47 -31 -11 5 -22 -27
-29 -83 -1 -13 -10 -31 -19 -40 -15 -15 -16 -15 -9 2 3 9 1 17 -4 17 -15 0
-18 -52 -9 -145 11 -112 12 -160 4 -240 -17 -164 -17 -176 -8 -170 7 3 10 -19
9 -60 0 -38 4 -71 11 -78 8 -8 11 -7 11 3 0 10 4 8 14 -5 16 -24 36 -111 37
-163 1 -56 11 -25 64 203 26 110 51 216 56 237 6 23 20 43 38 55 16 10 45 38
65 63 35 44 46 67 26 55 -12 -7 17 92 35 119 8 12 12 35 9 52 -3 23 0 33 11
37 16 7 22 47 7 47 -13 0 39 101 54 107 9 3 10 12 4 29 -6 15 -6 24 0 24 6 0
10 5 10 10 0 6 5 16 11 23 5 7 18 28 27 47 11 23 25 36 41 38 13 2 40 13 60
25 69 40 112 58 121 52 6 -3 10 -2 10 2 0 5 16 7 36 5 33 -4 82 11 146 44 14
8 33 14 41 14 9 0 17 5 19 11 2 6 21 11 43 12 22 0 45 4 50 8 18 13 117 -10
156 -36 42 -27 65 -33 53 -12 -4 6 3 3 16 -8 21 -18 23 -18 17 -2 -6 15 -2 14
22 -4 16 -12 45 -22 65 -23 20 0 36 -5 36 -9 0 -4 8 -4 18 1 9 5 23 7 30 5 6
-3 12 1 12 7 0 45 219 -88 220 -135 1 -15 50 -72 50 -57 0 7 15 -4 33 -25 17
-21 35 -39 40 -41 4 -2 7 -11 7 -20 0 -8 3 -12 6 -9 11 11 81 -51 94 -83 7
-16 16 -27 21 -24 8 5 13 -10 10 -29 -1 -5 3 -6 9 -2 6 4 17 -8 24 -27 8 -18
24 -42 37 -53 12 -11 19 -14 14 -6 -17 29 12 1 38 -36 32 -47 40 -95 21 -131
-8 -15 -14 -45 -14 -67 0 -22 -2 -64 -4 -92 -2 -29 0 -51 4 -48 5 3 11 1 15
-5 3 -6 -3 -10 -16 -10 -18 0 -19 -3 -9 -15 16 -19 3 -39 -15 -23 -46 42 -140
98 -163 98 -15 0 -15 -2 -2 -10 8 -5 10 -10 4 -10 -6 0 -19 9 -29 20 -10 11
-25 20 -33 20 -12 0 -12 -4 2 -25 14 -21 14 -25 2 -25 -8 0 -17 9 -21 19 -9
28 -89 44 -97 20 -3 -8 -10 -5 -21 6 -13 12 -27 15 -50 11 -18 -3 -49 -9 -71
-12 -26 -5 -50 -19 -77 -47 -41 -43 -42 -62 -2 -52 61 15 193 15 264 0 41 -8
97 -16 126 -17 28 -2 49 -6 47 -10 -2 -3 9 -11 25 -16 36 -13 91 -93 96 -141
2 -20 8 -49 13 -66 5 -16 8 -59 6 -95 -3 -71 2 -100 17 -100 6 0 8 4 5 9 -4 5
-1 11 5 13 12 4 19 54 22 151 1 61 20 78 37 33 9 -26 10 -66 0 -66 -3 0 -4
-29 -4 -65 1 -37 -2 -63 -7 -59 -15 9 -10 -3 7 -21 15 -15 15 -18 -5 -36 -11
-11 -21 -26 -21 -34 0 -8 -8 -19 -17 -25 -16 -10 -16 -11 -1 -6 13 4 16 -1 13
-22 -2 -15 -4 -31 -4 -35 -1 -5 -5 -6 -9 -3 -4 2 -9 -13 -9 -35 -1 -21 -5 -45
-10 -52 -4 -6 -8 -25 -9 -40 -2 -16 -10 -48 -19 -70 -10 -23 -19 -58 -22 -77
-2 -19 -8 -48 -12 -65 -4 -16 -7 -46 -7 -67 1 -20 -3 -34 -8 -30 -5 3 -7 -2
-3 -11 3 -10 2 -17 -2 -17 -8 0 -14 -27 -23 -100 -2 -14 -12 -33 -23 -42 -15
-13 -17 -17 -5 -18 12 -1 10 -5 -5 -18 -11 -9 -21 -26 -23 -37 -4 -28 -38 -71
-52 -67 -8 2 -10 -3 -7 -13 4 -10 1 -15 -11 -15 -19 -1 -82 -54 -82 -70 0 -5
-5 -10 -11 -10 -6 0 -23 -9 -37 -19 -15 -10 -30 -18 -34 -17 -4 0 -16 -7 -28
-16 -11 -10 -20 -16 -20 -13 0 2 -12 -2 -27 -10 -19 -10 -32 -11 -46 -3 -29
15 -58 -4 -159 -103 -48 -47 -104 -94 -125 -105 -21 -10 -41 -23 -44 -27 -3
-5 -9 -8 -13 -8 -3 1 -8 0 -11 0 -3 -1 -13 -2 -22 -3 -10 -1 -35 -12 -57 -25
-33 -21 -51 -24 -130 -24 -76 -1 -99 3 -141 23 -27 13 -53 23 -57 22 -5 -1 -8
2 -8 6 0 5 -10 21 -23 35 -23 27 -47 36 -47 17 0 -5 -4 -10 -10 -10 -5 0 -7 6
-4 14 4 11 -1 13 -18 10 -13 -2 -18 -2 -11 2 16 7 5 34 -11 28 -7 -3 -24 9
-37 26 -13 18 -33 41 -43 51 -11 10 -17 19 -13 19 4 0 -10 16 -32 35 -40 36
-61 44 -61 23 0 -8 -3 -9 -8 -3 -10 14 -32 17 -32 5 0 -5 -4 -10 -10 -10 -5 0
-6 7 -3 17 4 10 2 14 -4 10 -7 -5 -9 0 -6 13 4 14 0 20 -11 20 -9 0 -28 11
-42 25 -14 14 -29 25 -34 25 -6 0 -10 6 -10 14 0 8 -13 27 -28 43 -15 15 -41
46 -57 68 -16 22 -44 56 -63 75 -34 36 -35 29 -5 -39 13 -28 13 -35 2 -42 -10
-6 -11 -9 -1 -9 6 0 12 -9 12 -19 0 -11 11 -28 25 -39 14 -11 25 -23 25 -27 0
-8 62 -65 72 -65 5 0 8 -6 8 -13 0 -7 9 -19 20 -27 11 -8 20 -18 20 -23 0 -13
27 -37 34 -30 6 6 10 -12 7 -30 -1 -5 3 -6 9 -2 6 3 8 12 4 18 -3 7 3 3 13 -8
10 -11 24 -21 31 -23 13 -2 17 24 5 31 -5 2 -1 2 7 -1 8 -3 25 -4 38 -3 18 1
22 -3 17 -18 -6 -21 9 -36 48 -45 27 -6 36 -29 16 -41 -6 -4 -9 0 -7 10 2 13
-4 19 -19 20 -27 2 -27 5 -7 -43 8 -22 26 -45 40 -52 13 -7 24 -19 24 -26 0
-6 8 -14 18 -18 17 -6 31 -14 109 -69 100 -70 299 -107 392 -73 24 9 56 16 72
16 15 0 31 5 34 10 9 15 51 12 67 -4 10 -10 19 -11 32 -4 9 5 24 7 32 4 8 -3
14 1 14 8 0 8 7 17 16 20 12 5 15 2 10 -11 -4 -10 -4 -14 0 -10 4 4 14 1 22
-6 9 -6 13 -7 10 -2 -4 6 2 16 13 23 11 7 19 8 19 2 0 -5 -4 -10 -10 -10 -5 0
-10 -6 -10 -12 1 -8 8 -4 18 8 19 22 23 24 53 24 13 0 18 4 13 12 -5 7 -3 8 7
2 8 -4 20 -9 27 -10 8 -2 17 -6 20 -10 4 -4 -1 -4 -11 -1 -13 5 -20 0 -27 -17
-12 -33 -29 -41 -37 -19 -6 16 -8 15 -13 -7 -10 -38 -2 -42 28 -14 35 33 62
48 62 35 0 -6 7 -8 16 -4 15 5 15 3 -1 -20 -14 -21 -14 -27 -4 -28 8 -1 5 -4
-6 -7 -19 -7 -20 -8 -3 -24 16 -16 20 -12 67 60 54 80 60 77 38 -18 -15 -62
-77 -166 -104 -174 -11 -3 -44 -57 -79 -128 l-61 -123 -164 -23 c-194 -26
-252 -28 -269 -7 -7 9 -20 13 -30 10 -9 -3 -55 2 -103 10 -47 8 -92 12 -100 9
-8 -3 -95 35 -193 85 -99 50 -184 91 -191 91 -14 0 -107 -96 -138 -143 -27
-39 -37 -142 -28 -270 6 -86 6 -87 32 -87 15 0 36 -7 48 -15 32 -23 214 -4
296 31 47 20 80 26 137 27 125 1 289 -15 301 -30 6 -7 15 -13 20 -13 4 0 21
-12 36 -26 43 -40 183 -102 258 -114 57 -9 70 -8 85 5 9 8 23 15 32 15 59 0
169 243 172 382 l1 73 -60 3 -60 3 55 58 c62 65 72 82 95 166 23 82 32 59 42
-110 14 -240 8 -339 -34 -540 -7 -38 -20 -106 -27 -150 -8 -44 -19 -99 -25
-122 -6 -23 -20 -89 -31 -145 -10 -57 -28 -132 -39 -168 -12 -36 -21 -68 -21
-72 0 -5 365 -8 810 -8 l810 0 0 358 0 357 -78 52 c-97 65 -172 107 -397 223
-227 117 -263 137 -409 228 -66 41 -162 93 -215 117 -57 26 -110 57 -131 78
-19 20 -71 93 -114 162 l-79 126 16 59 c10 33 17 68 17 77 0 48 27 99 90 175
70 84 196 308 182 324 -4 4 0 5 9 1 13 -4 18 3 23 36 6 40 33 136 62 222 7 22
18 73 24 114 6 40 14 81 19 90 4 9 11 36 15 61 5 35 16 53 48 83 22 21 46 36
53 33 7 -2 20 5 29 16 10 11 24 17 32 14 10 -4 14 2 14 19 0 14 -3 25 -7 25
-10 0 -105 -61 -130 -84 l-23 -19 0 20 c0 47 39 109 80 127 8 3 3 4 -12 1 -29
-6 -39 11 -13 21 8 4 15 15 15 26 0 10 5 16 10 13 6 -3 10 0 10 8 0 8 3 29 7
47 4 22 3 31 -4 27 -8 -5 -8 5 -1 31 11 43 38 217 43 279 1 22 6 46 9 52 12
18 2 130 -11 136 -7 2 -13 10 -13 16 0 8 5 7 17 -2 15 -12 16 -12 10 3 -4 12
-2 15 9 11 11 -4 14 4 14 35 0 23 5 44 10 47 6 3 8 16 6 28 -7 39 -47 180 -53
191 -6 10 -22 74 -27 111 -7 48 -28 105 -36 100 -6 -3 -15 7 -22 22 -7 15 -45
64 -86 107 -40 43 -93 109 -117 146 -59 90 -123 145 -235 204 -93 48 -95 48
-171 43 -42 -2 -83 -8 -90 -13 -14 -8 -59 -7 -93 3 -27 8 46 32 99 34 66 1 10
18 -60 18 -42 0 -54 -3 -40 -9 41 -18 -49 -10 -105 9 -30 10 -71 21 -90 25
l-35 7 33 -15 c39 -18 99 -64 67 -51 -11 4 -25 8 -32 8 -7 0 -9 5 -6 10 4 6
-3 8 -17 4 -33 -8 -80 3 -80 19 0 10 -14 14 -45 15 -43 1 -62 4 -67 9 -4 3
-77 7 -184 10 -65 2 -84 6 -94 20 -7 10 -19 16 -27 13 -7 -3 -13 0 -13 6 0 15
-27 14 -37 -1z m547 -145 c0 -7 5 -13 11 -13 5 0 7 4 4 10 -3 5 0 7 8 4 19 -7
17 -34 -3 -34 -9 0 -20 3 -24 8 -7 7 -12 8 -39 11 -7 0 -21 7 -30 14 -15 10
-11 12 28 13 31 1 45 -3 45 -13z m417 1 c-3 -3 -12 -4 -19 -1 -8 3 -5 6 6 6
11 1 17 -2 13 -5z m70 -10 c-3 -3 -12 -4 -19 -1 -8 3 -5 6 6 6 11 1 17 -2 13
-5z m-69 -11 c-10 -2 -26 -2 -35 0 -10 3 -2 5 17 5 19 0 27 -2 18 -5z m-1390
-136 c-14 -42 -24 -52 -31 -33 -4 9 -2 16 3 16 6 0 10 5 10 11 0 5 -5 7 -11 3
-7 -4 -9 1 -7 12 2 11 10 18 16 17 7 -2 12 2 12 8 0 5 4 8 9 4 6 -3 6 -18 -1
-38z m-24 -72 c3 -8 -2 -12 -12 -11 -9 2 -18 10 -20 19 -4 20 24 13 32 -8z
m1335 -79 c9 -10 8 -15 -3 -19 -8 -3 -16 2 -19 14 -6 22 6 25 22 5z m-1189
-226 c0 -5 -5 -10 -11 -10 -5 0 -7 5 -4 10 3 6 8 10 11 10 2 0 4 -4 4 -10z
m-203 -46 c-3 -3 -12 -4 -19 -1 -8 3 -5 6 6 6 11 1 17 -2 13 -5z m-7 -44 c0
-5 -5 -10 -11 -10 -5 0 -7 5 -4 10 3 6 8 10 11 10 2 0 4 -4 4 -10z m1405
-2547 c-5 -10 -9 -22 -9 -27 -1 -5 -7 -11 -14 -14 -14 -4 -5 29 12 40 7 5 5 8
-4 8 -13 0 -13 1 0 10 19 12 24 5 15 -17z m-40 -13 c3 -5 1 -10 -4 -10 -6 0
-11 5 -11 10 0 6 2 10 4 10 3 0 8 -4 11 -10z m-825 -560 c0 -5 -2 -10 -4 -10
-3 0 -8 5 -11 10 -3 6 -1 10 4 10 6 0 11 -4 11 -10z m38 -12 c-5 -15 -23 -11
-26 6 -2 11 2 14 13 10 9 -4 14 -11 13 -16z"/>
<path d="M1473 4595 c-3 -9 -3 -18 -1 -21 3 -3 8 4 11 16 6 23 -1 27 -10 5z"/>
<path d="M1810 3640 c-8 -5 -28 -10 -43 -10 -20 0 -30 -6 -34 -20 -3 -11 -10
-20 -15 -20 -5 0 -6 5 -2 11 3 6 -8 4 -24 -5 -35 -18 -49 -36 -30 -37 32 -3
73 4 79 12 3 5 31 11 62 13 32 3 55 1 52 -4 -3 -4 7 -5 22 -1 17 5 43 3 67 -5
21 -8 64 -16 95 -18 31 -2 60 -5 64 -5 5 -1 6 -5 3 -10 -3 -5 13 -11 37 -14
57 -8 68 -11 95 -25 27 -15 28 -4 5 37 -21 37 -131 95 -149 80 -8 -6 -14 -5
-17 5 -4 10 -17 14 -42 12 -19 -2 -35 -1 -35 3 0 10 -108 12 -115 1 -4 -6 -15
-6 -31 0 -30 12 -26 12 -44 0z"/>
<path d="M3125 3550 c3 -5 8 -10 11 -10 2 0 4 5 4 10 0 6 -5 10 -11 10 -5 0
-7 -4 -4 -10z"/>
<path d="M2843 3449 c-6 -6 -32 -15 -57 -20 -68 -12 -138 -49 -175 -91 -44
-51 -53 -85 -30 -123 11 -16 22 -36 26 -44 3 -8 14 -23 22 -33 9 -9 29 -33 45
-52 34 -40 56 -38 26 2 -11 15 -23 44 -27 65 -5 34 -4 37 18 37 13 0 51 -7 84
-15 33 -8 72 -14 88 -15 26 0 40 -20 15 -20 -9 0 -8 -4 2 -10 26 -17 -47 -12
-81 5 -16 9 -34 13 -40 10 -5 -4 -8 -1 -7 7 2 7 -7 14 -19 16 -42 6 -14 -25
50 -56 115 -56 266 -74 320 -39 14 9 40 17 57 17 16 0 30 5 30 11 0 7 10 9 28
5 26 -6 26 -6 8 9 -11 8 -17 18 -13 21 4 4 -2 13 -12 20 -16 11 -18 20 -11 49
6 27 5 35 -7 35 -10 0 -11 5 -5 16 5 9 7 26 5 38 -4 17 -3 18 6 6 6 -8 11 -10
11 -5 0 16 -34 42 -49 37 -8 -3 -11 0 -7 7 4 6 2 11 -3 11 -19 0 -26 2 -43 11
-15 8 -18 5 -18 -15 0 -23 -3 -25 -32 -19 -18 3 -41 10 -50 15 -9 4 -45 10
-80 13 -49 3 -54 2 -23 -4 22 -4 58 -18 79 -31 32 -19 36 -25 21 -30 -12 -4
-137 10 -172 19 -6 2 3 41 10 41 4 0 6 4 3 9 -3 4 -17 7 -31 6 -14 -2 -25 0
-25 5 0 8 49 20 85 20 18 0 22 4 18 20 -3 11 -9 20 -14 20 -5 0 -6 7 -3 15 7
18 -7 20 -23 4z m-127 -156 c-4 -9 -2 -19 3 -22 5 -3 -8 -19 -30 -34 -21 -16
-39 -24 -39 -18 0 6 4 11 9 11 5 0 7 8 4 19 -3 12 5 26 23 40 32 25 38 26 30
4z m84 -68 c0 -19 -4 -23 -17 -18 -29 11 -45 30 -30 36 31 13 47 7 47 -18z
m218 -28 c16 -13 -2 -27 -35 -27 -26 0 -27 3 -11 29 12 19 19 19 46 -2z"/>
<path d="M1889 3446 c-2 -3 -16 -7 -29 -10 -47 -9 -99 -36 -111 -58 -9 -16 -9
-23 0 -26 6 -2 11 -8 11 -13 0 -6 -4 -7 -10 -4 -5 3 -10 0 -10 -8 0 -16 -54
-40 -64 -30 -3 4 -6 -1 -6 -11 0 -12 6 -15 24 -10 17 4 30 0 44 -14 22 -22 82
-37 82 -21 0 5 29 9 63 9 56 0 65 -3 75 -22 8 -17 11 -19 11 -7 1 15 20 29 41
29 5 0 11 -8 13 -17 4 -17 5 -17 6 0 1 20 17 23 24 5 4 -10 6 -10 6 0 1 9 6
10 19 3 18 -10 126 -1 138 11 3 4 1 15 -5 26 -13 25 -14 45 -2 38 5 -4 7 3 4
15 -5 19 -4 20 16 10 18 -10 21 -9 21 6 0 15 2 15 16 -3 14 -18 15 -18 4 4 -6
12 -8 22 -4 22 3 0 1 7 -6 15 -7 8 -16 12 -21 9 -5 -3 -9 1 -9 8 0 10 -2 10
-9 -1 -7 -11 -13 -10 -35 4 -39 26 -130 45 -217 45 -42 0 -78 -2 -80 -4z m147
-16 c17 0 24 -6 24 -20 0 -21 -16 -23 -172 -23 -21 0 -35 -3 -33 -7 2 -4 -2
-7 -10 -7 -26 0 -16 22 18 37 35 16 114 29 135 24 8 -2 25 -4 38 -4z m-106
-129 c13 -26 13 -31 -3 -31 -22 0 -51 26 -43 38 11 18 34 14 46 -7z m228 11
c8 -6 10 -16 5 -28 -6 -15 -15 -18 -39 -14 -28 4 -31 8 -23 28 8 22 33 28 57
14z"/>
<path d="M3200 3350 c0 -5 5 -10 11 -10 5 0 7 5 4 10 -3 6 -8 10 -11 10 -2 0
-4 -4 -4 -10z"/>
<path d="M1140 3255 c7 -8 17 -15 22 -15 6 0 5 7 -2 15 -7 8 -17 15 -22 15 -6
0 -5 -7 2 -15z"/>
<path d="M3190 3262 c0 -5 7 -9 15 -9 8 0 15 4 15 9 0 4 -7 8 -15 8 -8 0 -15
-4 -15 -8z"/>
<path d="M2005 3199 c6 -19 4 -20 -61 -18 -48 2 -69 -1 -72 -10 -3 -10 20 -12
106 -9 60 1 108 6 106 9 -2 4 8 10 21 13 16 4 23 11 19 18 -5 8 -2 9 9 5 9 -3
27 -2 39 3 38 15 -51 5 -94 -10 -32 -12 -38 -11 -53 3 -22 23 -28 21 -20 -4z"/>
<path d="M1266 3062 c-3 -5 1 -15 9 -22 16 -14 20 -3 6 19 -5 8 -11 9 -15 3z"/>
<path d="M2155 2830 c-18 -19 -17 -20 7 -20 30 0 78 -35 78 -56 0 -8 11 -25
23 -38 19 -19 35 -24 81 -25 53 0 61 3 93 34 20 19 39 32 44 30 4 -3 26 2 48
11 23 9 48 14 56 10 8 -3 15 -2 15 3 0 22 -99 78 -110 62 -22 -36 -68 -84 -91
-97 -38 -19 -68 -10 -114 34 -43 42 -85 72 -101 72 -6 0 -19 -9 -29 -20z m143
-87 c6 -19 -25 -16 -32 3 -4 11 -1 14 11 12 9 -2 18 -9 21 -15z"/>
<path d="M2671 2797 c-7 -14 -30 -34 -51 -46 -85 -47 -70 -69 22 -29 55 24 80
61 55 85 -11 11 -15 10 -26 -10z"/>
<path d="M2100 2800 c0 -11 37 -47 63 -61 28 -15 20 0 -19 37 -40 37 -44 39
-44 24z"/>
<path d="M3490 2555 c0 -5 5 -17 10 -25 5 -8 10 -10 10 -5 0 6 -5 17 -10 25
-5 8 -10 11 -10 5z"/>
<path d="M1948 2494 c-67 -13 -100 -31 -96 -51 2 -9 16 -20 32 -24 15 -4 36
-15 45 -23 9 -9 37 -22 61 -31 l44 -16 -22 24 c-23 25 -21 72 4 63 7 -3 16 -1
18 3 3 5 50 7 103 4 54 -2 107 -4 118 -3 34 1 179 -22 190 -30 10 -8 118 -24
165 -25 18 0 26 -6 28 -23 3 -19 6 -21 18 -11 19 16 28 5 20 -25 -4 -15 -16
-28 -29 -31 -15 -4 -23 -14 -25 -30 -2 -28 16 -44 29 -24 5 8 9 11 9 7 0 -4
24 10 53 32 52 40 80 49 92 30 15 -25 26 -8 21 32 -3 22 -7 42 -8 43 -21 18
-166 74 -178 69 -20 -9 -70 -5 -93 8 -12 6 -23 6 -32 -2 -15 -13 -149 -16
-215 -5 -25 5 -55 14 -67 22 -16 10 -27 12 -41 4 -19 -10 -47 -10 -57 1 -3 3
-19 4 -35 2 -21 -3 -30 1 -30 11 0 16 -39 16 -122 -1z m766 -159 c-4 -8 -10
-15 -15 -15 -4 0 -6 7 -3 15 4 8 10 15 15 15 4 0 6 -7 3 -15z"/>
<path d="M2542 2198 c-7 -7 -12 -21 -11 -32 1 -18 2 -17 8 4 4 14 13 24 20 22
7 -1 10 2 6 8 -8 13 -8 13 -23 -2z"/>
<path d="M2490 2155 c-22 -12 -23 -14 -7 -21 20 -7 30 -1 33 21 1 8 2 15 1 15
-1 -1 -13 -7 -27 -15z"/>
<path d="M1200 1910 c-115 -117 -205 -200 -216 -200 -74 -1 -241 -25 -420 -60
-215 -43 -515 -106 -546 -116 -17 -5 -18 -50 -18 -770 l0 -764 738 0 738 0
-24 178 c-29 225 -118 670 -163 817 -63 207 -75 350 -44 525 9 47 18 99 21
116 7 47 52 165 69 184 8 9 15 22 15 28 0 6 4 14 10 17 12 7 5 -11 -29 -79
-29 -58 -33 -153 -11 -222 27 -83 92 -179 183 -267 50 -48 92 -85 94 -83 2 2
-12 76 -32 165 -31 143 -39 167 -72 209 -66 86 -83 138 -86 254 -1 57 2 140 6
186 6 61 6 82 -3 82 -7 0 -101 -90 -210 -200z"/>
<path d="M2815 1490 c-3 -6 1 -7 9 -4 18 7 21 14 7 14 -6 0 -13 -4 -16 -10z"/>
</g>
</svg>
